<?xml version="1.0" encoding="UTF-8" standalone="no"?><!DOCTYPE svg PUBLIC "-//W3C//DTD SVG 1.1//EN" "http://www.w3.org/Graphics/SVG/1.1/DTD/svg11.dtd"><svg width="100%" height="100%" viewBox="0 0 241 200" version="1.1" xmlns="http://www.w3.org/2000/svg" xmlns:xlink="http://www.w3.org/1999/xlink" xml:space="preserve" style="fill-rule:evenodd;clip-rule:evenodd;stroke-linejoin:round;stroke-miterlimit:1.41421;"><rect x="0" y="0" width="240.559" height="200" style="fill:none;"/><clipPath id="_clip1"><rect x="0" y="0" width="240.559" height="200"/></clipPath><g clip-path="url(#_clip1)"><g id="keys"><path d="M0,0.379l0.545,193.318c0,0 -0.425,6.303 4.204,6.303c4.047,-0.01 25.263,-0.02 25.263,-0.02c0,0 3.266,0.383 3.252,-6.43c-0.026,-8.764 -0.545,-193.207 -0.545,-193.207l-32.719,0.036Z" style="fill:#fff;fill-rule:nonzero;"/><path d="M34.348,0.343l0.552,193.322c0,0 -0.427,6.309 4.196,6.309c4.049,-0.003 25.27,-0.025 25.27,-0.025c0,0 3.268,0.384 3.247,-6.433c-0.022,-8.761 -0.543,-193.199 -0.543,-193.199l-32.722,0.026Z" style="fill:#fff;fill-rule:nonzero;"/><path d="M68.796,0.323l0.547,193.323c0,0 -0.426,6.303 4.203,6.293c4.049,0 25.265,-0.017 25.265,-0.017c0,0 3.269,0.374 3.247,-6.433c-0.023,-8.771 -0.541,-193.198 -0.541,-193.198l-32.721,0.032Z" style="fill:#fff;fill-rule:nonzero;"/><path d="M103.248,0.29l0.548,193.325c0,0 -0.429,6.302 4.198,6.302c4.049,-0.004 25.265,-0.019 25.265,-0.019c0,0 3.27,0.372 3.252,-6.433c-0.03,-8.767 -0.546,-193.199 -0.546,-193.199l-32.717,0.024Z" style="fill:#fff;fill-rule:nonzero;"/><path d="M137.732,0.26l0.544,193.324c0,0 -0.425,6.314 4.203,6.303c4.046,0 25.265,-0.028 25.265,-0.028c0,0 3.27,0.38 3.247,-6.416c-0.023,-8.765 -0.544,-193.208 -0.544,-193.208l-32.715,0.025Z" style="fill:#fff;fill-rule:nonzero;"/><path d="M171.903,0.021l0.553,193.33c0,0 -0.433,6.297 4.204,6.297c4.045,-0.006 25.262,-0.026 25.262,-0.026c0,0 3.262,0.384 3.242,-6.428c-0.018,-8.761 -0.548,-193.194 -0.548,-193.194l-32.713,0.021Z" style="fill:#fff;fill-rule:nonzero;"/><path d="M206.383,0.213l0.548,193.325c0,0 -0.427,6.292 4.195,6.287c4.054,0 25.27,-0.017 25.27,-0.017c0,0 3.271,0.38 3.252,-6.422c-0.026,-8.76 -0.549,-193.204 -0.549,-193.204l-32.716,0.031Z" style="fill:#fff;fill-rule:nonzero;"/><g id="povisilice"><path d="M39.744,128.414l-19.455,0.025l-0.313,-128.105l19.45,-0.011l0.318,128.091Z" style="fill:#251d1e;fill-rule:nonzero;"/><path d="M37.675,125.06l-15.037,0.011l-0.305,-124.737l15.035,-0.011l0.307,124.737Z" style="fill:#777b7f;fill-rule:nonzero;"/><path d="M36.233,119.49l-12.952,0.011l-0.292,-116.247l12.948,-0.018l0.296,116.254Z" style="fill:#0d080e;fill-rule:nonzero;"/><path d="M24.408,3.242l0.004,-0.053l-1.759,0l0.286,116.266l1.754,0l-0.161,-66.901c0,0 1.71,-16.727 11.486,-16.333c-0.049,-19.579 -0.08,-32.985 -0.08,-32.985l-11.53,0.006Z" style="fill:#484a57;fill-rule:nonzero;"/><path d="M22.498,3.843l1.1,-0.011l0.282,115.348l-1.096,-0.008l-0.286,-115.329Z" style="fill:#b0b5b8;fill-rule:nonzero;"/><path d="M79.985,128.38l-19.458,0.019l-0.318,-128.1l19.454,-0.018l0.322,128.099Z" style="fill:#251d1e;fill-rule:nonzero;"/><path d="M77.911,125.025l-15.036,0.011l-0.305,-124.737l15.036,-0.017l0.305,124.743Z" style="fill:#777b7f;fill-rule:nonzero;"/><path d="M76.463,119.455l-12.945,0.004l-0.285,-116.252l12.944,-0.012l0.286,116.26Z" style="fill:#0d080e;fill-rule:nonzero;"/><path d="M64.647,3.207l0,-0.055l-1.754,0.008l0.285,116.251l1.754,0.007l-0.164,-66.906c0,0 1.713,-16.725 11.484,-16.326c-0.05,-19.586 -0.079,-32.986 -0.079,-32.986l-11.526,0.007Z" style="fill:#484a57;fill-rule:nonzero;"/><path d="M62.737,3.797l1.093,-0.006l0.292,115.347l-1.1,0.006l-0.285,-115.347Z" style="fill:#b0b5b8;fill-rule:nonzero;"/><path d="M144.862,128.315l-19.457,0.018l-0.31,-128.082l19.455,-0.023l0.312,128.087Z" style="fill:#251d1e;fill-rule:nonzero;"/><path d="M142.793,124.973l-15.035,0.003l-0.304,-124.731l15.035,-0.018l0.304,124.746Z" style="fill:#777b7f;fill-rule:nonzero;"/><path d="M141.348,119.389l-12.952,0.005l-0.284,-116.254l12.947,-0.006l0.289,116.255Z" style="fill:#0d080e;fill-rule:nonzero;"/><path d="M128.057,95.352l-0.226,-92.324l13.284,0c0.028,11.44 0.06,24.601 0.083,33.735c-9.773,-0.394 -11.485,16.34 -11.485,16.34l0.099,42.249l0,24.042l-1.755,0l0,-24.042Z" style="fill:#484a57;"/><path d="M127.622,3.737l1.096,-0.005l0.283,115.353l-1.098,0l-0.281,-115.348Z" style="fill:#b0b5b8;fill-rule:nonzero;"/><path d="M181.581,128.283l-19.461,0.012l-0.312,-128.086l19.453,-0.017l0.32,128.091Z" style="fill:#251d1e;fill-rule:nonzero;"/><path d="M179.508,124.924l-15.033,0.017l-0.309,-124.737l15.04,-0.012l0.302,124.732Z" style="fill:#777b7f;fill-rule:nonzero;"/><path d="M178.059,119.345l-12.945,0.019l-0.287,-116.252l12.944,-0.013l0.288,116.246Z" style="fill:#0d080e;fill-rule:nonzero;"/><path d="M164.779,95.315l-0.23,-92.287l13.28,0c0.028,11.096 0.06,23.787 0.084,32.777c-9.777,-0.394 -11.489,16.332 -11.489,16.332l0.104,43.179l-0.001,0l0,24.046l-1.748,0l0,-24.047Z" style="fill:#484a57;"/><path d="M164.332,3.706l1.1,0l0.283,115.343l-1.094,0l-0.289,-115.343Z" style="fill:#b0b5b8;fill-rule:nonzero;"/><path d="M217.793,128.249l-19.455,0.019l-0.319,-128.106l19.462,0l0.312,128.087Z" style="fill:#251d1e;fill-rule:nonzero;"/><path d="M215.724,124.894l-15.036,0.004l-0.308,-124.729l15.036,-0.007l0.308,124.732Z" style="fill:#777b7f;fill-rule:nonzero;"/><path d="M214.278,119.323l-12.951,0.012l-0.286,-116.259l12.944,-0.007l0.293,116.254Z" style="fill:#0d080e;fill-rule:nonzero;"/><path d="M202.743,119.337l-1.752,0l0,-24.044l-0.003,0l-0.226,-92.265l13.279,0c0.029,11.6 0.061,24.971 0.079,34.164c-9.77,-0.404 -11.477,16.327 -11.477,16.327l0.1,41.774l0,0l0,24.044Z" style="fill:#484a57;"/><path id="dovde" d="M200.55,3.672l1.096,0l0.281,115.343l-1.096,0l-0.281,-115.343Z" style="fill:#b0b5b8;fill-rule:nonzero;"/></g></g></g></svg>