<svg version="1.0" xmlns="http://www.w3.org/2000/svg" width="928.974" height="912" viewBox="0 0 696.731 684"><path d="M298.783.9c-.3.6-.8 6.5-1 13.3-.8 20.1-1.6 31.2-2.5 32.3-.4.5-1.9 3.1-3.3 5.7-2.6 4.7-2.6 7.5 0 3.8.8-1.1 2.1-2 2.9-2 1.2 0 1.4.9 1 4.2-.3 2.4-1 12.6-1.6 22.8-.6 10.2-1.3 21.6-1.5 25.5-.3 3.8-.9 15.5-1.5 26-1.3 24.9-2 31.3-3.4 32.3-.6.5-4.7 2.3-9.1 4.1-4.4 1.8-15 7-23.5 11.6-8.5 4.5-22.7 12-31.5 16.5-8.8 4.6-19.1 9.9-23 12-22.7 12.1-30.3 16-30.8 16-.3 0-.8-1.4-1.2-3-1.1-5-4.5-6.4-15.4-6.5l-9.6-.1-5 4.3-5 4.3-1.9 6.2c-2.2 7.3-2.8 12.6-1.5 13.4 1.9 1.1.6 2.5-6.3 6.5-4 2.4-12 7-17.8 10.5-5.8 3.4-11.9 7-13.7 8-1.7 1.1-7.1 4.3-12 7.3-9.2 5.6-29.4 17.2-44.8 25.8-18.3 10.2-33.9 19.3-35.1 20.5-1.7 1.8-.1 5.4 3.5 7.6l2.9 1.8 11.8-.2c10.9-.1 20.9-1.2 32.4-3.5 2.5-.6 10.4-2.1 17.5-3.4 26.2-4.8 34.8-6.5 38.4-7.5 3.7-1.1 50.4-10.9 64.1-13.5 4.1-.8 14-2.8 22-4.5 19-4 33.3-6.5 50.5-9 7.7-1.1 16.9-2.4 20.5-3 14.4-2.2 23.1-3.1 24-2.5 1.6 1 2 5.4 3.5 42 .3 6.6 1 19.9 1.6 29.5.6 9.6 1.2 20.4 1.3 24l.1 6.4-2 .4c-5.3.9-7.5 2.4-7.5 5.3 0 3.1.7 3.7 6.5 5.9l4 1.5 1.2 12.5c.6 6.9 1.8 20.1 2.7 29.5.9 9.3 2.1 23.1 2.6 30.5 1.3 18.5 2 26.1 2.5 29 .2 1.4.7 6.4 1.1 11.2l.6 8.8h-2.3c-1.3 0-5.5-.5-9.4-1.1-3.8-.6-8.8-1.2-11-1.4-7.3-.8-17.9-2.7-28.2-5.1-5.7-1.3-11.1-2.4-12-2.4-1 0-2.4-.4-3.1-.8-1.4-1-1.2-1.6 7.8-21.4 2.8-6.2 6.7-14.7 8.5-18.8 6.7-15 8.4-18.7 14.8-32 6-12.4 8.2-16.5 15.3-28.7 1.3-2.3 2.4-5.3 2.4-6.6v-2.5l-3-.4-3-.5-3.2 5.1c-4.7 7.6-6.9 11.6-14.8 27.6-9 18.3-8.5 17.1-17.9 38.5-19.8 45.1-27.7 59.6-46.6 85-6.6 8.9-7.6 11.1-7.3 15.8l.3 4.2 3.9.3c8 .7 12.6-3.3 10.6-9.3l-1.1-3.4 2.2-4.3c1.2-2.4 5.7-9.5 9.9-15.9 4.3-6.4 8.7-13.4 9.8-15.6 1.1-2.2 2.8-4.5 3.6-5.3l1.6-1.3 5.8 1.3c3.1.6 7.5 1.6 9.7 2.1 4.7 1 11.5 2 35.9 4.9 9.8 1.1 18.7 2.5 19.7 3.1 1.1.5 1.9 2 1.9 3.2 0 1.2.7 8.5 1.5 16.2.8 7.7 1.5 15.9 1.5 18.2v4.2l-3.7.6c-5.5.9-29.1 12.9-37 18.9l-6.8 5.1-.3 3.9-.3 3.8 2.7 2.9c5.6 5.9 15.5 4.2 19.4-3.3 1.1-2.1 1.8-4.3 1.5-4.8-.6-1 4.7-5 6.7-5 .8 0 2.3 1.5 3.3 3.4l1.8 3.3-4.5 5.9c-6.1 7.9-12.6 19.6-14 25.1l-1.1 4.5 2 2.6c2.2 2.9 6.6 4 8.8 2.2.7-.6 2.6-3.7 4.1-6.8 2.7-5.4 6.4-11.2 9.2-14 .6-.7 1.2-1.7 1.2-2.2 0-1.1 10.1-11 11.3-11 .5 0 .7.3.5.7-.2.5-1 2-1.7 3.5l-1.3 2.6 2.5 8.4c1.4 4.5 2.8 11.6 3.1 15.7l.5 7.4 2.4 2.6c1.5 1.6 3.2 5.7 4.6 11.1 2.9 11.3 6.1 15.6 9.9 13.2.7-.5 1.5-3.3 1.8-6.3.5-5.2-.7-12.5-5-29.9-3.6-14.3-4.6-19.7-4.6-23.3 0-2-1.2-10.6-2.6-19-1.5-8.3-2.8-16.3-2.9-17.7-1.3-12.5-2.6-25.7-3.1-31.5-.3-3.9-.7-8.3-1-9.9l-.4-2.9 8.2.7c11.2 1 11.8 1.1 23.6 2.7l10.3 1.3-.6 3.6c-1.2 7.3-.9 14 .8 15.7l1.6 1.7 2.2-2.8c1.2-1.5 2.5-2.4 3-1.9.4.4 2.7 5.3 4.9 10.8 2.3 5.5 5.1 12 6.2 14.5 3.3 7.1 3.9 10.9 1.9 11.9-2.5 1.3-13.7 3-22.9 3.5-9 .5-11.2 1.5-11.2 5.3 0 3.9 1.8 6.2 5.4 6.9 3.6.6 16.1-.6 27.9-2.7l6.9-1.2.9 1.4c2.1 3.3 1 4.7-4.6 5.9-6.4 1.3-10.9 4.7-13.2 9.9-2.2 5-2.2 14.8 0 18.8l1.8 3.3h3.3c4.3 0 6.2-2.3 7-8.4.6-5 2.8-9.6 4.6-9.6.5 0 1.3 1.6 1.9 3.5.5 1.9 1.9 4.7 3 6.1 1.2 1.5 2.1 3.1 2.1 3.6 0 .4 1.1 2.5 2.3 4.6 1.3 2 4.4 6.8 6.8 10.7 2.4 3.8 6.3 9.6 8.7 12.7 4.7 6.3 17 17.8 18.9 17.8 2 0 5.3-3.8 5.3-6 0-1.1-2.9-5.5-6.4-9.8-3.4-4.3-8.6-11.7-11.5-16.3l-5.2-8.4 3.6-2.8c1.9-1.6 3.5-3.5 3.5-4.3 0-.7-2.1-3.7-4.6-6.5-4.8-5.4-8.9-13.3-7.7-15.1.3-.6.8-2.7 1-4.6.3-2.7-.4-4.7-3.2-8.8-1.9-2.9-4.6-6.1-5.9-7-1.4-.8-3.3-3.7-4.2-6.2-11-30-16.6-41.7-21.4-45-5.6-3.7-5.1-4.6 2.1-3.6 3.5.5 30.5.9 59.9.9 29.4.1 57.6.4 62.5.9 43.4 3.7 52.8 5.2 83 13.5 25.4 7 31.7 8.2 41.8 8.2h7.9l10.8 5.5c6 2.9 11.1 5.4 11.4 5.4.2 0 3.7 1.5 7.8 3.3 4 1.9 9.7 4.5 12.6 5.8 5.4 2.3 5.5 2.7 3.7 7.1-.5 1.3 0 2 2.1 2.8 4.5 1.7 14.2-1.6 17.1-5.9 1.3-1.8 2-3.8 1.7-4.3-.7-1.1-10.7-5.8-23.9-11.3-16.7-6.8-29.6-13.4-32.5-16.5-2-2.2-3.7-3-6.2-3-5.4 0-22.5-9.8-41.5-23.7-5.1-3.8-41.6-31-50.3-37.6-23.2-17.5-66.8-44.1-87.5-53.4-4.4-1.9-10.3-4.6-13-5.8-17.7-7.9-51.9-18.9-70-22.5-22.5-4.4-62.9-15.4-65.7-17.9-.6-.6-2.3-19.3-3.3-38.1-.3-5.2-1-16.5-1.6-25-.6-8.5-1.3-21.9-1.6-29.7l-.6-14.2 2.5-1c1.4-.5 6.7-1.4 11.9-2.1 5.2-.6 14.6-2.1 20.9-3.4 7.9-1.6 11.9-2 12.8-1.3 3.4 2.7 17.8-1.8 18.8-5.9 1-3.8-.5-6.3-4.1-7.3l-3.4-.9-7.3 2.5c-14.5 4.9-50.1 11.4-52.1 9.4-.8-.8-1.1-16.5-1.1-50.3l-.1-49.3 1.8-2.5c2.1-3 2.2-4.7.1-6.7l-1.5-1.6.6-9.6c.3-5.3.8-13.4 1.1-18.1.2-4.7.9-13.9 1.4-20.5.5-6.6 1-13.8 1.1-16 0-2.2.5-8.3 1-13.5.4-5.2 1.1-12.7 1.4-16.5.9-10.2 1.4-14.1 4-31 .8-5 1.6-14.6 1.7-21.3l.3-12.4-3-2.4c-3-2.4-7.9-3.2-9-1.5zm-11 175.1c.4.6.8 23.3.9 50.5l.3 49.4-3.1 1c-1.7.5-5.6 1.2-8.6 1.6-11.1 1.3-47.8 6.5-55.5 7.9-4.4.8-9.3 1.6-11 1.9-1.6.2-14.5 2.7-28.5 5.6-14 2.8-28.2 5.6-31.5 6.2-3.3.6-7.3 1.5-9 1.9-1.6.5-5.2 1.1-8 1.5-2.7.3-6.6 1-8.5 1.5-6.9 1.8-32.7 5.9-44 6.9-17.9 1.7-19.8 1.9-31.5 3-17.5 1.7-20.3 1.8-19.8.4.6-1.6 13.1-9.4 32.3-20.1 2.5-1.3 5.2-3 6-3.7.8-.7 4.6-2.9 8.5-5 3.8-2.1 8.1-4.6 9.5-5.5 12.2-8.2 39-23.8 60.9-35.2 8.2-4.3 12-5.8 13.7-5.4l2.3.6-.5 3c-.7 3.4 1.7 10.4 4.9 13.7 2.6 2.9 8 3 12.7.3 9.7-5.5 17-8.9 19.1-8.8 1.3.1 5 .7 8.1 1.4 6 1.3 6.7 1 8.2-3 .9-2.6-1.9-6.6-4.7-6.6-3.4 0-5.1-1.5-4.4-4 .8-3-6.9-11-10.7-11-1.5 0-6.1 2-10.4 4.5-7.5 4.4-13.2 5.8-13.2 3.2 0-.7 4.2-3.4 9.3-6.1 5-2.7 12.1-6.5 15.7-8.4 3.6-1.9 16.6-8.7 29-15 12.4-6.3 23.6-12.2 25-13.1 1.4-1 3.6-2.2 5-2.9 1.4-.6 4.3-2.3 6.5-3.7 12.1-7.5 23.3-11.3 25-8.5zm27.2 229.6c12.9 3.5 25.4 6.5 37.3 8.9 48.6 10 87.2 23.9 122.4 44.1 3.7 2.1 8.7 5 10.9 6.3 4.5 2.6 34.8 22.5 43.7 28.8 5.2 3.6 29.7 22 52 38.9 5.8 4.4 13.5 10 17.2 12.4 11.2 7.4 9.9 7.6-11.7 1.5-42.6-12-81.2-16.2-143.3-15.3-47.4.6-79.7-1.1-106.7-5.7-4.4-.8-10.6-1.7-13.7-2-3.2-.4-6-1-6.3-1.5-.2-.4-1.6-14.4-3-31.1-3-36.4-5.2-61.9-6.5-75.2-.6-5.5-.7-10.3-.4-10.8.7-1.2 1.4-1.2 8.1.7zm-8.7 185.4c0 .5-.7 1-1.5 1s-1.5-.5-1.5-1c0-.6.7-1 1.5-1s1.5.4 1.5 1z"/></svg>